<?xml version="1.0" standalone="no"?><!DOCTYPE svg PUBLIC "-//W3C//DTD SVG 1.1//EN" "http://www.w3.org/Graphics/SVG/1.1/DTD/svg11.dtd"><svg t="1520925565852" class="icon" style="" viewBox="0 0 1024 1024" version="1.1" xmlns="http://www.w3.org/2000/svg" p-id="2818" xmlns:xlink="http://www.w3.org/1999/xlink" width="200" height="200"><defs><style type="text/css"></style></defs><path d="M960 123.7c0-33-26.7-59.7-59.7-59.7H124.7C91.7 64 65 90.7 65 123.7v775.7c0 33 26.7 59.7 59.7 59.7h775.7c33 0 59.7-26.7 59.7-59.7V123.7zM228 899H125V749h103v150z m0-208H125V542h103v149z m0-210H125V332h103v149z m0-207H125V124h103v150z m508 625H289V542h447v357z m0-418H289V124h447v357z m164 418H797V749h103v150z m0-208H797V542h103v149z m0-210H797V332h103v149z m0-207H797V124h103v150z" p-id="2819" fill-rule="evenodd" fill="#888"></path></svg>