<?xml version="1.0" standalone="no"?><!DOCTYPE svg PUBLIC "-//W3C//DTD SVG 1.1//EN" "http://www.w3.org/Graphics/SVG/1.1/DTD/svg11.dtd"><svg t="1520925588824" class="icon" style="" viewBox="0 0 1024 1024" version="1.1" xmlns="http://www.w3.org/2000/svg" p-id="3568" xmlns:xlink="http://www.w3.org/1999/xlink" width="200" height="200"><defs><style type="text/css"></style></defs><path d="M950.848 128l0 640q0 28.576-19.424 50.848t-49.152 34.56-59.136 18.272-55.136 6.016-55.136-6.016-59.136-18.272-49.152-34.56-19.424-50.848 19.424-50.848 49.152-34.56 59.136-18.272 55.136-6.016q60 0 109.728 22.272l0-306.848-438.848 135.424 0 405.152q0 28.576-19.424 50.848t-49.152 34.56-59.136 18.272-55.136 6.016-55.136-6.016-59.136-18.272-49.152-34.56-19.424-50.848 19.424-50.848 49.152-34.56 59.136-18.272 55.136-6.016q60 0 109.728 22.272l0-552.576q0-17.728 10.848-32.288t28-20.288l475.424-146.272q6.848-2.272 16-2.272 22.848 0 38.848 16t16 38.848z" p-id="3569" fill-rule="evenodd" fill="#29A1F7"></path></svg>