<?xml version="1.0" standalone="no"?><!DOCTYPE svg PUBLIC "-//W3C//DTD SVG 1.1//EN" "http://www.w3.org/Graphics/SVG/1.1/DTD/svg11.dtd"><svg t="1520924154423" class="icon" style="" viewBox="0 0 1024 1024" version="1.1" xmlns="http://www.w3.org/2000/svg" p-id="2050" xmlns:xlink="http://www.w3.org/1999/xlink" width="200" height="200"><defs><style type="text/css"></style></defs><path d="M924.764 367.42 787.188 820.67c-12.507 42.522-56.531 75.541-99.555 75.541L225.879 896.211c-51.028 0-105.558-40.522-124.068-92.551-8.004-22.513-8.004-44.524-1-63.535 1-10.005 3.001-20.011 3.502-32.018 0.5-8.004-4.002-14.508-3.002-20.511 2.001-12.007 12.507-20.512 20.511-34.019 15.008-25.014 32.018-65.536 37.521-91.551 2.501-9.505-2.501-20.511 0-29.016 2.501-9.506 12.007-16.509 17.01-25.515 13.507-23.012 31.017-67.537 33.518-91.049 1-10.506-4.002-22.012-1-30.017 3.502-11.506 14.508-16.509 22.012-26.515 12.006-16.509 32.018-64.035 35.019-90.55 1-8.504-4.002-17.009-2.501-26.014 2.001-9.505 14.008-19.511 22.012-31.017 21.012-31.017 25.014-99.555 88.549-81.545l-0.5 1.501c8.505-2.001 17.009-4.502 25.514-4.502l380.709 0c23.514 0 44.525 10.506 57.031 28.016 13.008 18.01 16.01 41.522 9.006 65.036L708.645 674.089c-23.513 77.042-36.52 94.052-100.055 94.052L173.851 768.141c-6.504 0-14.508 1.501-19.011 7.504-4.002 6.004-4.502 10.506-0.5 21.512 10.005 29.017 44.524 35.02 72.04 35.02l461.754 0c18.51 0 40.022-10.506 45.525-28.516l150.082-493.771c3.002-9.505 3.002-19.511 2.501-28.516 11.507 4.502 22.013 11.506 29.517 21.512C928.266 320.895 931.768 344.408 924.764 367.42zM352.949 447.965l304.168 0c8.504 0 18.01-7.004 21.011-16.009l10.506-32.018c3.002-9.005-2.001-16.009-11.006-16.009L373.46 383.929c-8.504 0-18.01 7.004-21.011 16.009l-10.506 32.018C338.941 440.961 343.944 447.965 352.949 447.965zM394.472 319.895 698.64 319.895c8.505 0 18.01-7.004 21.012-16.009l10.506-32.018c3.001-9.005-2.001-16.009-11.007-16.009L414.983 255.859c-8.505 0-18.01 7.004-21.012 16.009l-10.506 32.018C380.464 312.891 385.467 319.895 394.472 319.895z" p-id="2051" fill-rule="evenodd" fill="#29A1F7"></path></svg>